<svg xmlns="http://www.w3.org/2000/svg" width="24" height="24" fill="none" viewBox="0 0 24 24">
  <path
    fill="currentColor"
    d="M7.29 4.908a54.397 54.397 0 0 1 9.42 0l1.51.13a2.889 2.889 0 0 1 2.314 1.546.236.236 0 0 1-.091.307l-6.266 3.88a4.25 4.25 0 0 1-4.4.045L3.47 7.088a.236.236 0 0 1-.103-.293A2.889 2.889 0 0 1 5.78 5.039l1.51-.131Z"
  />
  <path
    fill="currentColor"
    d="M3.362 8.767a.248.248 0 0 0-.373.187 30.351 30.351 0 0 0 .184 7.56A2.888 2.888 0 0 0 5.78 18.96l1.51.131c3.135.273 6.287.273 9.422 0l1.51-.13a2.888 2.888 0 0 0 2.606-2.449 30.35 30.35 0 0 0 .16-7.779.248.248 0 0 0-.376-.182l-5.645 3.494a5.749 5.749 0 0 1-5.951.061l-5.653-3.34-.001.001Z"
  />
</svg>