<svg xmlns="http://www.w3.org/2000/svg" width="94" height="61" fill="none" viewBox="0 0 94 61">
  <path fill="#F1F1F1" d="M9.546.563V12.751H0v12.017h9.546v15.767c0 7.032.047 11.693 4.602 15.32 10.739 8.549 22.756 2.684 26.634-2.493l30.895-40.611H59.319c-4.006 0-5.88 3.267-7.16 4.858L31.365 44.584c-4.219 4.218-8.949 1.79-8.949-4.049V24.768h9.93l4.559-12.017H22.415V5.08c0-4.296-3.352-4.802-5.028-4.518H9.546Z"/>
  <path fill="#999" d="m56.08 56.516-8.566-12.06 8.267-10.881 19.646 26.648H63.622c-4.73 0-6.349-1.917-7.542-3.707ZM39.332 34.27l-6.988-9.502 4.56-12.017c2.684 0 4.53 1.576 5.07 2.286l6.052 7.97-4.347 5.596-4.347 5.668Z"/>
  <path fill="#FF007F" d="M92.618 19.813 81.33 29.835c2.294.004 4.364.613 6.209 1.828 1.85 1.22 3.318 2.867 4.401 4.944 1.084 2.076 1.625 4.447 1.625 7.11 0 3.476-.767 6.479-2.302 9.007-1.49 2.483-3.589 4.402-6.297 5.756-2.664 1.309-5.789 1.727-9.539 1.727h-.002L67.895 50c1.86.661 3.946 1.042 5.908 1.131 4.431-.285 8.298-2.732 8.298-6.85 0-3.97-2.037-6.355-5.91-7.069a7.435 7.435 0 0 0-1.645-.197 18.392 18.392 0 0 0-5.833.59v-7.16l7.57-7.224H63.708l7.936-10.45h20.974v7.042Z"/>
</svg>